<svg width="12" height="12" viewBox="0 0 12 12" fill="none" xmlns="http://www.w3.org/2000/svg">
<path d="M3.83189 5.14748L2.82916 5.50324L1.46832 5.7854L3.53367e-05 5.96942L1.5919 6.18378L2.59784 6.34822L3.6065 6.65984L4.58638 7.35239L5.11318 8.07832L5.47832 9.10189L5.77864 10.4948L5.98552 12L6.21545 10.437L6.40442 9.40837L6.72118 8.27579L7.40053 7.35239L8.08203 6.81591L9.09669 6.43561L10.5053 6.20252L12 5.96943L10.4061 5.77127L9.39864 5.61707L8.38703 5.31571L7.40053 4.63315L6.86677 3.91262L6.4918 2.89281L6.17808 1.50301L5.95672 0L5.74185 1.56527L5.56279 2.59577L5.24048 3.62626L4.54812 4.61996L3.83189 5.14748Z" fill="white"/>
</svg>
